<?xml version="1.0" standalone="no"?>
<!DOCTYPE svg PUBLIC "-//W3C//DTD SVG 20010904//EN"
 "http://www.w3.org/TR/2001/REC-SVG-20010904/DTD/svg10.dtd">
<svg version="1.0" xmlns="http://www.w3.org/2000/svg"
 width="1410.000000pt" height="1410.000000pt" viewBox="0 0 1410.000000 1410.000000"
 preserveAspectRatio="xMidYMid meet">
<metadata>
Created by potrace 1.11, written by Peter Selinger 2001-2013
</metadata>
<g transform="translate(0.000000,1410.000000) scale(0.100000,-0.100000)"
fill="#000000" stroke="none">
<path d="M7200 14078 c-19 -13 -45 -45 -59 -73 l-26 -49 -3 -3159 c-2 -3521
-8 -3229 69 -3386 98 -199 305 -324 594 -361 43 -5 80 -12 82 -13 2 -2 -34 -7
-79 -10 -277 -20 -499 -150 -597 -348 -77 -156 -71 119 -71 -3363 0 -3483 -6
-3188 70 -3270 35 -37 43 -41 88 -41 58 0 107 29 151 90 15 22 251 420 524
885 272 465 708 1192 969 1615 l474 770 1650 5 1649 5 59 22 c80 30 130 65
166 115 63 86 75 204 34 328 -10 29 -276 506 -592 1060 -315 553 -628 1102
-695 1220 -123 215 -190 306 -262 350 l-33 20 44 99 c25 54 56 142 71 197 23
87 26 117 26 254 0 137 -3 167 -27 254 -15 54 -42 133 -61 174 -20 41 -34 76
-33 77 2 1 24 12 50 23 67 29 124 77 173 147 71 100 1397 2435 1423 2505 20
55 23 80 20 161 -3 86 -6 101 -33 144 -37 60 -95 105 -172 137 l-58 23 -1692
5 c-930 3 -1693 7 -1696 10 -30 36 -1118 1850 -1467 2445 -254 435 -477 814
-496 843 -66 100 -163 137 -234 90z"/>
<path d="M3277 10728 c-10 -8 -28 -60 -46 -138 -39 -164 -46 -216 -32 -225 29
-17 255 -45 371 -45 149 0 178 -12 213 -88 21 -46 22 -59 25 -486 l3 -439 137
8 c76 3 162 10 192 13 l55 7 3 464 c3 523 0 544 -66 640 -25 36 -54 64 -89 83
-90 50 -139 59 -383 65 -256 6 -247 3 -302 101 -31 53 -50 63 -81 40z"/>
<path d="M4382 10731 c-25 -16 -97 -336 -82 -361 4 -6 76 -20 161 -32 85 -11
160 -21 167 -24 8 -2 -4 -28 -34 -74 -58 -91 -99 -179 -120 -260 -15 -58 -16
-83 -5 -235 11 -161 37 -395 46 -422 3 -9 28 -13 77 -13 100 0 291 19 302 30
5 5 -11 166 -38 387 -51 420 -53 452 -30 535 l17 58 121 0 c86 0 128 4 140 13
25 19 64 236 44 248 -7 5 -149 9 -315 9 l-302 0 -34 43 c-19 23 -42 57 -51 75
-16 32 -38 40 -64 23z"/>
<path d="M5351 10731 c-17 -11 -81 -270 -81 -327 l0 -43 58 -11 c31 -6 69 -13
83 -16 24 -5 29 -17 98 -267 81 -292 106 -361 164 -460 33 -56 38 -70 26 -78
-44 -28 -309 -99 -369 -99 -29 0 -32 -15 -18 -100 l13 -75 44 -3 c115 -8 505
59 628 108 245 98 399 286 478 583 27 100 92 603 82 630 -6 15 -31 17 -245 17
-175 0 -243 -3 -255 -12 -21 -17 -50 -226 -34 -247 8 -9 28 -12 69 -9 l58 4 0
-101 c0 -192 -28 -342 -86 -461 -40 -81 -117 -174 -132 -159 -12 13 -27 98
-102 575 -47 300 -64 388 -77 398 -11 8 -55 12 -130 12 -129 0 -129 0 -194
101 -30 48 -50 58 -78 40z"/>
<path d="M1890 8821 c-21 -6 -28 -18 -42 -71 -28 -104 -61 -278 -55 -293 3 -7
59 -27 131 -46 l126 -33 2 -732 3 -731 110 3 c61 2 144 7 185 10 l75 7 3 693
c2 763 1 777 -58 899 -42 86 -67 101 -204 123 -63 10 -124 23 -136 30 -12 6
-41 43 -66 81 -25 38 -46 69 -47 68 -1 -1 -13 -4 -27 -8z"/>
<path d="M3323 8823 c-17 -3 -27 -19 -42 -66 -26 -79 -63 -260 -59 -289 3 -19
21 -26 138 -57 l135 -36 -2 -135 c-1 -116 -6 -150 -31 -242 -34 -124 -34 -122
52 -140 l56 -12 41 39 c104 101 213 277 244 395 37 138 -2 270 -98 329 -21 13
-79 28 -162 41 -146 23 -154 28 -212 123 -20 31 -36 56 -37 56 -1 -1 -11 -4
-23 -6z"/>
<path d="M2566 8798 c-21 -33 -67 -232 -69 -297 l-2 -56 125 -35 125 -36 3
-493 2 -494 128 8 c70 4 154 10 187 13 l60 7 3 445 c3 493 -2 549 -58 661 -45
88 -76 107 -215 128 -106 17 -119 21 -150 51 -18 18 -44 52 -57 76 -26 50 -58
59 -82 22z"/>
<path d="M4113 8812 c-14 -9 -79 -227 -91 -308 -11 -64 -17 -53 133 -229 208
-243 475 -579 475 -599 0 -3 -35 -6 -77 -6 -164 0 -489 -25 -512 -39 -18 -11
-51 -207 -38 -220 8 -8 166 -11 495 -11 l483 0 16 38 c8 20 23 71 31 113 l16
76 -43 74 c-24 41 -84 132 -133 202 l-90 128 126 190 126 190 58 -6 c31 -3 63
-2 70 3 11 7 52 199 52 244 0 16 -12 18 -139 18 l-139 0 -28 33 c-16 18 -38
51 -48 75 -16 36 -24 43 -45 40 -21 -2 -27 -11 -38 -53 -27 -103 -63 -337 -73
-485 -6 -85 -12 -156 -14 -157 -2 -2 -36 40 -76 94 -41 54 -149 195 -241 314
-92 119 -176 232 -185 253 -18 36 -43 46 -71 28z"/>
<path d="M5422 8807 c-26 -30 -90 -343 -74 -359 5 -5 77 -17 160 -26 l150 -16
-84 -89 c-107 -114 -146 -190 -173 -342 -21 -111 -63 -407 -76 -524 l-7 -64
113 7 c255 15 270 17 279 40 5 12 27 167 50 346 41 324 62 439 101 558 l21 62
88 0 c82 0 91 -2 121 -27 60 -51 63 -67 67 -400 l4 -302 -34 -5 c-18 -3 -69
-8 -113 -11 -100 -7 -109 -16 -125 -127 -20 -136 -52 -123 292 -126 275 -2
296 -1 303 15 4 10 20 60 36 112 l29 93 0 277 c-1 310 -11 393 -59 496 -39 85
-118 167 -196 206 -115 56 -147 61 -440 66 -306 6 -283 -1 -342 95 -37 59 -67
74 -91 45z"/>
<path d="M1298 7723 c0 -5 -2 -21 -2 -38 -1 -16 -6 -41 -10 -55 -9 -25 -8 -25
12 -7 31 28 47 74 32 92 -13 16 -29 20 -32 8z"/>
<path d="M1372 7718 c-8 -8 -8 -15 -2 -24 7 -8 7 -21 0 -38 -23 -62 5 -53 35
10 13 28 14 38 5 50 -15 17 -22 18 -38 2z"/>
<path d="M1055 7649 c-4 -11 -5 -23 -2 -25 2 -3 33 -8 68 -12 l64 -7 3 -103
c3 -100 3 -103 25 -100 21 3 22 7 21 106 0 125 -6 134 -94 140 -33 2 -60 8
-60 13 0 18 -19 9 -25 -12z"/>
<path d="M1455 7649 c-5 -13 -1 -25 9 -32 9 -7 25 -45 35 -85 11 -40 25 -79
31 -87 12 -14 4 -18 -54 -27 -34 -5 -31 -28 4 -28 109 0 166 45 180 141 17
112 15 119 -24 119 -25 0 -35 -5 -39 -20 -4 -15 0 -20 13 -20 19 0 20 -4 4
-106 -4 -30 -39 -73 -49 -62 -3 3 -15 51 -27 107 -18 83 -25 101 -40 101 -10
0 -18 5 -18 10 0 18 -19 10 -25 -11z"/>
<path d="M3901 6608 c-32 -94 -32 -93 57 -106 42 -7 118 -12 169 -12 81 0 95
-3 118 -23 17 -14 30 -39 36 -67 4 -25 8 -222 9 -438 l0 -393 53 6 c28 4 58 8
65 11 11 3 13 87 10 436 l-3 433 -25 45 c-40 72 -87 90 -262 98 l-143 7 -15
32 c-24 51 -45 42 -69 -29z"/>
<path d="M4505 6636 c-24 -58 -35 -117 -22 -121 42 -14 146 -25 234 -25 176 0
173 6 173 -366 l0 -277 63 7 c34 4 66 11 71 16 4 4 7 136 5 292 -4 281 -4 284
-29 333 -41 79 -83 95 -268 102 l-150 6 -16 33 c-20 43 -43 43 -61 0z"/>
<path d="M5150 6605 c-12 -36 -20 -72 -17 -79 3 -8 24 -17 46 -21 47 -8 37 16
97 -240 38 -163 57 -214 101 -273 14 -18 23 -35 21 -38 -5 -4 -149 -36 -220
-48 -31 -6 -38 -11 -38 -30 0 -49 17 -55 112 -45 196 20 312 58 387 125 55 49
95 121 111 199 13 63 49 427 43 438 -2 4 -51 7 -108 7 -114 0 -107 4 -121 -72
l-6 -38 51 0 51 0 -5 -42 c-3 -24 -12 -108 -20 -187 -9 -90 -22 -158 -33 -180
-17 -36 -93 -101 -116 -101 -22 0 -36 47 -92 329 -31 152 -61 279 -68 283 -6
4 -28 8 -49 8 -33 0 -39 4 -54 35 -26 55 -48 46 -73 -30z"/>
<path d="M5941 6653 c-15 -29 -41 -125 -36 -133 3 -4 35 -11 72 -15 120 -12
118 -10 79 -59 -66 -81 -94 -153 -125 -328 -16 -90 -32 -187 -36 -217 l-7 -54
68 8 c38 4 71 9 73 11 2 2 15 86 28 186 27 212 33 244 75 356 l31 82 79 0
c158 0 178 -37 178 -333 0 -215 12 -197 -126 -197 -90 0 -98 -4 -108 -62 l-7
-38 164 0 163 0 22 45 c20 42 22 60 22 248 0 227 -8 274 -61 346 -21 29 -48
51 -87 69 -53 24 -70 26 -225 30 l-169 5 -16 33 c-17 37 -36 43 -51 17z"/>
<path d="M3285 5333 c-9 -21 -19 -56 -22 -79 l-5 -40 65 -12 c35 -7 132 -12
215 -12 227 0 221 10 222 -387 l0 -253 28 0 c15 0 44 3 65 6 l37 7 0 276 c0
286 -5 332 -43 385 -40 56 -81 66 -289 66 l-187 0 -23 40 c-13 22 -29 40 -35
40 -7 0 -20 -17 -28 -37z"/>
<path d="M4051 5308 c-31 -93 -31 -94 42 -107 35 -6 112 -11 171 -11 100 0
108 -2 131 -25 25 -24 25 -27 25 -199 0 -181 -6 -214 -43 -255 -34 -36 -62
-43 -199 -50 -70 -4 -130 -9 -133 -13 -4 -<?xml version="1.0" standalone="no"?>
<!DOCTYPE svg PUBLIC "-//W3C//DTD SVG 20010904//EN"
 "http://www.w3.org/TR/2001/REC-SVG-20010904/DTD/svg10.dtd">
<svg version="1.0" xmlns="http://www.w3.org/2000/svg"
 width="1410.000000pt" height="1410.000000pt" viewBox="0 0 1410.000000 1410.000000"
 preserveAspectRatio="xMidYMid meet">
<metadata>
Created by potrace 1.11, written by Peter Selinger 2001-2013
</metadata>
<g transform="translate(0.000000,1410.000000) scale(0.100000,-0.100000)"
fill="#000000" stroke="none">
<path d="M7200 14078 c-19 -13 -45 -45 -59 -73 l-26 -49 -3 -3159 c-2 -3521
-8 -3229 69 -3386 98 -199 305 -324 594 -361 43 -5 80 -12 82 -13 2 -2 -34 -7
-79 -10 -277 -20 -499 -150 -597 -348 -77 -156 -71 119 -71 -3363 0 -3483 -6
-3188 70 -3270 35 -37 43 -41 88 -41 58 0 107 29 151 90 15 22 251 420 524
885 272 465 708 1192 969 1615 l474 770 1650 5 1649 5 59 22 c80 30 130 65
166 115 63 86 75 204 34 328 -10 29 -276 506 -592 1060 -315 553 -628 1102
-695 1220 -123 215 -190 306 -262 350 l-33 20 44 99 c25 54 56 142 71 197 23
87 26 117 26 254 0 137 -3 167 -27 254 -15 54 -42 133 -61 174 -20 41 -34 76
-33 77 2 1 24 12 50 23 67 29 124 77 173 147 71 100 1397 2435 1423 2505 20
55 23 80 20 161 -3 86 -6 101 -33 144 -37 60 -95 105 -172 137 l-58 23 -1692
5 c-930 3 -1693 7 -1696 10 -30 36 -1118 1850 -1467 2445 -254 435 -477 814
-496 843 -66 100 -163 137 -234 90z"/>
<path d="M3277 10728 c-10 -8 -28 -60 -46 -138 -39 -164 -46 -216 -32 -225 29
-17 255 -45 371 -45 149 0 178 -12 213 -88 21 -46 22 -59 25 -486 l3 -439 137
8 c76 3 162 10 192 13 l55 7 3 464 c3 523 0 544 -66 640 -25 36 -54 64 -89 83
-90 50 -139 59 -383 65 -256 6 -247 3 -302 101 -31 53 -50 63 -81 40z"/>
<path d="M4382 10731 c-25 -16 -97 -336 -82 -361 4 -6 76 -20 161 -32 85 -11
160 -21 167 -24 8 -2 -4 -28 -34 -74 -58 -91 -99 -179 -120 -260 -15 -58 -16
-83 -5 -235 11 -161 37 -395 46 -422 3 -9 28 -13 77 -13 100 0 291 19 302 30
5 5 -11 166 -38 387 -51 420 -53 452 -30 535 l17 58 121 0 c86 0 128 4 140 13
25 19 64 236 44 248 -7 5 -149 9 -315 9 l-302 0 -34 43 c-19 23 -42 57 -51 75
-16 32 -38 40 -64 23z"/>
<path d="M5351 10731 c-17 -11 -81 -270 -81 -327 l0 -43 58 -11 c31 -6 69 -13
83 -16 24 -5 29 -17 98 -267 81 -292 106 -361 164 -460 33 -56 38 -70 26 -78
-44 -28 -309 -99 -369 -99 -29 0 -32 -15 -18 -100 l13 -75 44 -3 c115 -8 505
59 628 108 245 98 399 286 478 583 27 100 92 603 82 630 -6 15 -31 17 -245 17
-175 0 -243 -3 -255 -12 -21 -17 -50 -226 -34 -247 8 -9 28 -12 69 -9 l58 4 0
-101 c0 -192 -28 -342 -86 -461 -40 -81 -117 -174 -132 -159 -12 13 -27 98
-102 575 -47 300 -64 388 -77 398 -11 8 -55 12 -130 12 -129 0 -129 0 -194
101 -30 48 -50 58 -78 40z"/>
<path d="M1890 8821 c-21 -6 -28 -18 -42 -71 -28 -104 -61 -278 -55 -293 3 -7
59 -27 131 -46 l126 -33 2 -732 3 -731 110 3 c61 2 144 7 185 10 l75 7 3 693
c2 763 1 777 -58 899 -42 86 -67 101 -204 123 -63 10 -124 23 -136 30 -12 6
-41 43 -66 81 -25 38 -46 69 -47 68 -1 -1 -13 -4 -27 -8z"/>
<path d="M3323 8823 c-17 -3 -27 -19 -42 -66 -26 -79 -63 -260 -59 -289 3 -19
21 -26 138 -57 l135 -36 -2 -135 c-1 -116 -6 -150 -31 -242 -34 -124 -34 -122
52 -140 l56 -12 41 39 c104 101 213 277 244 395 37 138 -2 270 -98 329 -21 13
-79 28 -162 41 -146 23 -154 28 -212 123 -20 31 -36 56 -37 56 -1 -1 -11 -4
-23 -6z"/>
<path d="M2566 8798 c-21 -33 -67 -232 -69 -297 l-2 -56 125 -35 125 -36 3
-493 2 -494 128 8 c70 4 154 10 187 13 l60 7 3 445 c3 493 -2 549 -58 661 -45
88 -76 107 -215 128 -106 17 -119 21 -150 51 -18 18 -44 52 -57 76 -26 50 -58
59 -82 22z"/>
<path d="M4113 8812 c-14 -9 -79 -227 -91 -308 -11 -64 -17 -53 133 -229 208
-243 475 -579 475 -599 0 -3 -35 -6 -77 -6 -164 0 -489 -25 -512 -39 -18 -11
-51 -207 -38 -220 8 -8 166 -11 495 -11 l483 0 16 38 c8 20 23 71 31 113 l16
76 -43 74 c-24 41 -84 132 -133 202 l-90 128 126 190 126 190 58 -6 c31 -3 63
-2 70 3 11 7 52 199 52 244 0 16 -12 18 -139 18 l-139 0 -28 33 c-16 18 -38
51 -48 75 -16 36 -24 43 -45 40 -21 -2 -27 -11 -38 -53 -27 -103 -63 -337 -73
-485 -6 -85 -12 -156 -14 -157 -2 -2 -36 40 -76 94 -41 54 -149 195 -241 314
-92 119 -176 232 -185 253 -18 36 -43 46 -71 28z"/>
<path d="M5422 8807 c-26 -30 -90 -343 -74 -359 5 -5 77 -17 160 -26 l150 -16
-84 -89 c-107 -114 -146 -190 -173 -342 -21 -111 -63 -407 -76 -524 l-7 -64
113 7 c255 15 270 17 279 40 5 12 27 167 50 346 41 324 62 439 101 558 l21 62
88 0 c82 0 91 -2 121 -27 60 -51 63 -67 67 -400 l4 -302 -34 -5 c-18 -3 -69
-8 -113 -11 -100 -7 -109 -16 -125 -127 -20 -136 -52 -123 292 -126 275 -2
296 -1 303 15 4 10 20 60 36 112 l29 93 0 277 c-1 310 -11 393 -59 496 -39 85
-118 167 -196 206 -115 56 -147 61 -440 66 -306 6 -283 -1 -342 95 -37 59 -67
74 -91 45z"/>
<path d="M1298 7723 c0 -5 -2 -21 -2 -38 -1 -16 -6 -41 -10 -55 -9 -25 -8 -25
12 -7 31 28 47 74 32 92 -13 16 -29 20 -32 8z"/>
<path d="M1372 7718 c-8 -8 -8 -15 -2 -24 7 -8 7 -21 0 -38 -23 -62 5 -53 35
10 13 28 14 38 5 50 -15 17 -22 18 -38 2z"/>
<path d="M1055 7649 c-4 -11 -5 -23 -2 -25 2 -3 33 -8 68 -12 l64 -7 3 -103
c3 -100 3 -103 25 -100 21 3 22 7 21 106 0 125 -6 134 -94 140 -33 2 -60 8
-60 13 0 18 -19 9 -25 -12z"/>
<path d="M1455 7649 c-5 -13 -1 -25 9 -32 9 -7 25 -45 35 -85 11 -40 25 -79
31 -87 12 -14 4 -18 -54 -27 -34 -5 -31 -28 4 -28 109 0 166 45 180 141 17
112 15 119 -24 119 -25 0 -35 -5 -39 -20 -4 -15 0 -20 13 -20 19 0 20 -4 4
-106 -4 -30 -39 -73 -49 -62 -3 3 -15 51 -27 107 -18 83 -25 101 -40 101 -10
0 -18 5 -18 10 0 18 -19 10 -25 -11z"/>
<path d="M3901 6608 c-32 -94 -32 -93 57 -106 42 -7 118 -12 169 -12 81 0 95
-3 118 -23 17 -14 30 -39 36 -67 4 -25 8 -222 9 -438 l0 -393 53 6 c28 4 58 8
65 11 11 3 13 87 10 436 l-3 433 -25 45 c-40 72 -87 90 -262 98 l-143 7 -15
32 c-24 51 -45 42 -69 -29z"/>
<path d="M4505 6636 c-24 -58 -35 -117 -22 -121 42 -14 146 -25 234 -25 176 0
173 6 173 -366 l0 -277 63 7 c34 4 66 11 71 16 4 4 7 136 5 292 -4 281 -4 284
-29 333 -41 79 -83 95 -268 102 l-150 6 -16 33 c-20 43 -43 43 -61 0z"/>
<path d="M5150 6605 c-12 -36 -20 -72 -17 -79 3 -8 24 -17 46 -21 47 -8 37 16
97 -240 38 -163 57 -214 101 -273 14 -18 23 -35 21 -38 -5 -4 -149 -36 -220
-48 -31 -6 -38 -11 -38 -30 0 -49 17 -55 112 -45 196 20 312 58 387 125 55 49
95 121 111 199 13 63 49 427 43 438 -2 4 -51 7 -108 7 -114 0 -107 4 -121 -72
l-6 -38 51 0 51 0 -5 -42 c-3 -24 -12 -108 -20 -187 -9 -90 -22 -158 -33 -180
-17 -36 -93 -101 -116 -101 -22 0 -36 47 -92 329 -31 152 -61 279 -68 283 -6
4 -28 8 -49 8 -33 0 -39 4 -54 35 -26 55 -48 46 -73 -30z"/>
<path d="M5941 6653 c-15 -29 -41 -125 -36 -133 3 -4 35 -11 72 -15 120 -12
118 -10 79 -59 -66 -81 -94 -153 -125 -328 -16 -90 -32 -187 -36 -217 l-7 -54
68 8 c38 4 71 9 73 11 2 2 15 86 28 186 27 212 33 244 75 356 l31 82 79 0
c158 0 178 -37 178 -333 0 -215 12 -197 -126 -197 -90 0 -98 -4 -108 -62 l-7
-38 164 0 163 0 22 45 c20 42 22 60 22 248 0 227 -8 274 -61 346 -21 29 -48
51 -87 69 -53 24 -70 26 -225 30 l-169 5 -16 33 c-17 37 -36 43 -51 17z"/>
<path d="M3285 5333 c-9 -21 -19 -56 -22 -79 l-5 -40 65 -12 c35 -7 132 -12
215 -12 227 0 221 10 222 -387 l0 -253 28 0 c15 0 44 3 65 6 l37 7 0 276 c0
286 -5 332 -43 385 -40 56 -81 66 -289 66 l-187 0 -23 40 c-13 22 -29 40 -35
40 -7 0 -20 -17 -28 -37z"/>
<path d="M4051 5308 c-31 -93 -31 -94 42 -107 35 -6 112 -11 171 -11 100 0
108 -2 131 -25 25 -24 25 -27 25 -199 0 -181 -6 -214 -43 -255 -34 -36 -62
-43 -199 -50 -70 -4 -130 -9 -133 -13 -4 -3 -9 -25 -12 -47 l-6 -41 167 0
c120 0 176 4 200 14 53 22 111 81 137 139 23 49 24 63 24 252 0 230 -8 261
-81 302 -35 21 -52 23 -186 23 l-146 0 -19 40 c-27 58 -47 52 -72 -22z"/>
<path d="M4659 5343 c-27 -66 -39 -117 -30 -126 5 -5 47 -15 93 -21 l83 -12
-1 -56 c-1 -31 -11 -97 -24 -147 -24 -100 -22 -110 26 -114 26 -2 32 4 61 63
58 118 88 238 72 294 -13 47 -38 60 -128 66 -74 5 -74 5 -94 43 -23 44 -43 47
-58 10z"/>
<path d="M5095 5360 c-10 -15 -45 -122 -45 -135 0 -7 22 -15 53 -19 28 -4 71
-9 94 -12 l43 -6 -34 -42 c-66 -81 -95 -154 -126 -323 -15 -87 -32 -185 -36
-217 l-7 -59 69 7 c38 4 70 9 72 11 2 2 14 88 28 192 27 216 34 248 75 355
l30 78 77 0 c88 0 117 -12 149 -59 22 -33 23 -42 23 -252 l0 -217 -100 -4
c-54 -1 -103 -7 -108 -13 -5 -5 -13 -27 -16 -47 l-7 -38 164 0 164 0 22 48
c22 47 23 56 18 263 -4 240 -10 267 -69 334 -63 72 -88 79 -288 85 l-175 5
-20 37 c-20 37 -38 47 -50 28z"/>
<path d="M5895 5360 c-10 -16 -45 -122 -45 -135 0 -8 20 -16 48 -19 26 -4 61
-9 77 -12 l31 -5 -30 -62 c-20 -41 -30 -82 -34 -126 -4 -59 10 -240 25 -312
l5 -27 -82 -8 c-74 -6 -82 -9 -91 -31 -5 -13 -9 -33 -9 -44 0 -18 8 -19 148
-19 l149 0 10 46 c8 34 7 69 -3 138 -17 112 -32 357 -26 409 l4 37 133 0 c151
0 176 -10 195 -78 5 -21 10 -150 10 -299 l0 -263 34 0 c18 0 48 3 65 6 l31 7
0 286 c-1 299 -6 337 -47 383 -44 49 -65 53 -303 58 l-225 5 -20 37 c-20 37
-38 47 -50 28z"/>
<path d="M3362 5011 c-23 -4 -47 -12 -52 -17 -5 -5 -13 -107 -16 -227 l-7
-217 35 0 c20 0 50 3 67 6 l31 7 0 228 c0 126 -3 228 -7 228 -5 -1 -27 -5 -51
-8z"/>
<path d="M2969 4094 c-11 -25 -23 -60 -26 -79 -6 -36 -6 -36 100 -51 30 -4 46
-11 43 -18 -52 -118 -56 -131 -55 -231 0 -55 6 -141 12 -192 l12 -91 -35 -6
c-19 -3 -51 -6 -70 -6 -19 0 -41 -4 -48 -9 -14 -9 -33 -76 -24 -85 3 -4 67 -6
142 -6 101 0 140 3 148 13 21 25 24 94 8 217 -21 165 -30 328 -22 374 l7 36
125 0 c131 0 172 -10 190 -47 5 -10 11 -148 14 -308 l5 -290 40 3 c22 1 53 5
68 8 l28 6 -3 292 c-3 289 -3 292 -28 340 -43 84 -65 90 -328 94 l-222 3 -20
40 c-11 21 -25 39 -31 39 -5 0 -19 -21 -30 -46z"/>
<path d="M3735 4130 c-10 -16 -45 -122 -45 -136 0 -12 44 -24 148 -39 l44 -7
-7 -62 c-4 -33 -17 -101 -30 -149 l-23 -88 26 -10 c14 -5 32 -8 41 -7 36 7
121 231 121 318 0 37 -6 56 -23 75 -20 24 -33 28 -102 34 -80 6 -80 6 -100 43
-20 37 -38 47 -50 28z"/>
<path d="M4164 4132 c-13 -8 -44 -89 -46 -117 0 -11 20 -51 45 -88 l45 -69
-34 -67 c-52 -103 -76 -207 -78 -336 0 -60 3 -116 7 -122 6 -9 39 -13 108 -13
98 0 100 0 109 26 20 52 14 62 -44 74 l-53 11 -6 58 c-8 70 6 203 29 280 l16
56 71 -75 c86 -91 202 -235 281 -350 33 -47 63 -89 67 -93 9 -11 89 61 89 80
0 8 -42 68 -92 135 -51 66 -98 127 -104 136 -10 14 2 43 63 160 l75 142 43 0
c46 0 47 0 60 67 l6 32 -62 3 c-61 3 -63 4 -82 41 -20 40 -29 44 -45 24 -14
-16 -68 -210 -91 -323 l-17 -85 -150 166 c-88 99 -157 184 -168 211 -20 46
-24 49 -42 36z"/>
<path d="M4943 4128 c-13 -17 -43 -107 -43 -129 0 -14 17 -21 75 -34 l75 -17
0 -317 0 -318 33 4 c17 2 47 6 65 9 l34 5 -4 307 c-5 393 -4 391 -136 417 -25
5 -37 16 -52 46 -22 41 -31 47 -47 27z"/>
<path d="M5365 4130 c-9 -15 -45 -122 -45 -135 0 -7 22 -18 49 -26 l49 -14
-39 -95 c-39 -98 -62 -200 -48 -221 5 -9 17 -9 51 0 34 10 59 10 103 2 95 -18
99 -17 118 37 18 46 18 47 -4 65 -15 12 -39 17 -81 17 l-60 0 6 68 c4 37 10
82 13 100 l5 32 124 0 c70 0 134 -5 148 -11 42 -19 48 -53 44 -236 -3 -157 -5
-171 -27 -207 -38 -61 -78 -73 -271 -81 -90 -3 -166 -7 -167 -9 -2 -1 -6 -24
-9 -50 l-7 -48 209 4 c203 3 210 4 259 30 59 31 84 56 116 118 23 42 24 58 27
244 4 229 -4 267 -66 314 -35 27 -35 27 -232 30 l-197 3 -22 40 c-22 39 -35
47 -46 29z"/>
<path d="M6036 4125 c-15 -15 -46 -104 -46 -131 0 -19 35 -25 202 -33 175 -8
189 -13 208 -80 5 -20 10 -156 10 -303 l0 -266 43 5 c23 2 52 6 65 9 l22 4 0
276 c0 308 -6 349 -55 399 -44 43 -98 55 -253 55 l-128 0 -23 40 c-12 22 -24
40 -26 40 -2 0 -11 -7 -19 -15z"/>
</g>
</svg>
